<?xml version="1.0" encoding="UTF-8" standalone="no"?>
<!-- Created with Inkscape (http://www.inkscape.org/) -->

<svg
   width="148.01237"
   height="57.733047"
   viewBox="0 0 148.01238 57.733047"
   version="1.1"
   id="SVGRoot"
   sodipodi:docname="logo-main.svg"
   xml:space="preserve"
   inkscape:version="1.2.1 (9c6d41e410, 2022-07-14)"
   inkscape:export-filename="logo-main.svg"
   inkscape:export-xdpi="4"
   inkscape:export-ydpi="4"
   xmlns:inkscape="http://www.inkscape.org/namespaces/inkscape"
   xmlns:sodipodi="http://sodipodi.sourceforge.net/DTD/sodipodi-0.dtd"
   xmlns="http://www.w3.org/2000/svg"
   xmlns:svg="http://www.w3.org/2000/svg"><sodipodi:namedview
     id="namedview21"
     pagecolor="#ffffff"
     bordercolor="#000000"
     borderopacity="0.25"
     inkscape:showpageshadow="2"
     inkscape:pageopacity="0.0"
     inkscape:pagecheckerboard="0"
     inkscape:deskcolor="#d1d1d1"
     inkscape:document-units="px"
     showgrid="false"
     inkscape:zoom="1.3228492"
     inkscape:cx="34.773427"
     inkscape:cy="118.68322"
     inkscape:window-width="1360"
     inkscape:window-height="705"
     inkscape:window-x="-8"
     inkscape:window-y="-8"
     inkscape:window-maximized="1"
     inkscape:current-layer="g277"
     showguides="false"><sodipodi:guide
       position="66.500328,25.3481"
       orientation="1,0"
       id="guide834"
       inkscape:locked="false" /></sodipodi:namedview><defs
     id="defs16"><linearGradient
       id="linearGradient20155"
       inkscape:swatch="gradient"><stop
         style="stop-color:#3734d5;stop-opacity:1;"
         offset="0"
         id="stop20151" /><stop
         style="stop-color:#5ee9e5;stop-opacity:0.99029124;"
         offset="1"
         id="stop20153" /></linearGradient><linearGradient
       id="linearGradient3549"
       inkscape:swatch="gradient"><stop
         style="stop-color:#478cbf;stop-opacity:1;"
         offset="0"
         id="stop3545" /><stop
         style="stop-color:#2d3c54;stop-opacity:1;"
         offset="1"
         id="stop4316" /></linearGradient></defs><g
     inkscape:label="Camada 1"
     inkscape:groupmode="layer"
     id="g277"
     transform="translate(-72.478303,-96.905262)"
     style="display:inline"><path
       id="path539-9"
       style="mix-blend-mode:normal;fill:#ffffff;fill-opacity:1;fill-rule:evenodd;stroke:none;stroke-width:1.90977;stroke-dasharray:none;stroke-opacity:1"
       d="m 98.581488,96.905262 c -2.738802,0.556416 -5.448222,1.331619 -7.988282,2.5 0.05809,2.049708 0.204108,4.012908 0.498047,6.007818 -0.986441,0.57756 -2.023953,1.07388 -2.945312,1.75 -0.93615,0.65816 -1.892559,1.2869 -2.740235,2.05664 -1.69346,-1.02362 -3.485548,-1.98485 -5.332031,-2.83399 -1.990362,1.95755 -3.850822,4.07125 -5.371094,6.43555 1.143766,1.69089 2.337699,3.27519 3.626953,4.7793 h 0.03516 v 0.61523 c -1.064565,2.26762 -2.026716,4.93677 -2.984375,8.34766 -1.058355,3.7695 -2.11659,8.41563 -2.597657,12.40429 -0.481063,3.98872 -0.385165,7.32066 0.240235,9.6875 0.625398,2.3669 1.779995,3.76986 3.126953,4.64649 1.346957,0.87662 2.886666,1.22676 4.185547,1.31445 1.298881,0.0877 2.356927,-0.088 3.367187,-0.48242 1.010262,-0.39444 1.971938,-1.00682 2.837891,-1.75195 0.865953,-0.74512 1.635481,-1.62264 2.597656,-3.33203 0.962175,-1.70944 2.117434,-4.25131 3.175781,-6.26758 0.34178,-0.65113 0.565099,-1.48237 0.935547,-2.33399 l -4.914062,-0.32031 c -0.78313,-0.0514 -1.41416,-0.62856 -1.46875,-1.34375 l -0.269531,-3.5332 -8.244141,-1.21485 0.01172,-1.92578 c 0.05029,0 0.08838,-0.48837 0.138672,-0.48437 l 9.734375,0.85742 c 0.774255,0.0683 1.375367,0.63251 1.429687,1.3418 l 0.267578,3.5 7.527344,0.49218 0.513672,-3.17382 c 0.114028,-0.70585 0.787918,-1.23829 1.568357,-1.23829 h 10.26953 c 0.78071,0 1.45628,0.53244 1.57031,1.23829 l 0.51172,3.17382 7.52734,-0.49218 0.26758,-3.5 c 0.0543,-0.70904 0.65543,-1.2735 1.42969,-1.3418 l 9.73047,-0.85742 c 0.0511,-0.004 0.13867,0.48437 0.13867,0.48437 l 0.0137,1.91992 -8.24218,1.22071 -0.26954,3.53125 c -0.0546,0.71519 -0.68589,1.2943 -1.46875,1.3457 l -4.80078,0.3125 c 0.23902,0.69145 0.39913,1.38077 0.71289,1.97852 1.05836,2.01623 2.21165,4.55819 3.17383,6.26757 0.96218,1.70942 1.7317,2.58496 2.59766,3.33008 0.86596,0.74513 1.82958,1.35946 2.83984,1.75391 1.01026,0.39445 2.06831,0.57011 3.36719,0.48242 1.29889,-0.0877 2.83859,-0.43783 4.18555,-1.31445 1.34691,-0.87663 2.50155,-2.27959 3.12695,-4.64649 0.62541,-2.36684 0.7213,-5.69878 0.24023,-9.6875 -0.48107,-3.98866 -1.53929,-8.6348 -2.59765,-12.40429 -0.92403,-3.29109 -1.85495,-5.88828 -2.875,-8.10547 v -0.49414 h 0.0371 c 1.28954,-1.50411 2.48265,-3.08841 3.62695,-4.7793 -1.51974,-2.3643 -3.38269,-4.478 -5.37305,-6.43555 -1.84595,0.84914 -3.63856,1.81037 -5.33203,2.83399 -0.84741,-0.76974 -1.80273,-1.39848 -2.74023,-2.05664 -0.92109,-0.67612 -1.95879,-1.17244 -2.94336,-1.75 0.29314,-1.99491 0.43773,-3.95811 0.49609,-6.007818 -2.54034,-1.168381 -5.24813,-1.943584 -7.98828,-2.5 -1.09402,1.680312 -2.09544,3.500428 -2.9668,5.279298 -1.03324,-0.15778 -2.06996,-0.2172 -3.10937,-0.22851 h -0.0215 -0.0195 c -1.04131,0.0113 -2.07783,0.0707 -3.11132,0.22851 -0.8708,-1.77887 -1.87117,-3.598986 -2.966798,-5.279298 z m -7.701172,21.226568 c 3.240094,0 5.867187,2.39933 5.867187,5.35937 0,2.96201 -2.627093,5.36133 -5.867187,5.36133 -3.238481,0 -5.865235,-2.39932 -5.865235,-5.36133 0,-2.96004 2.626754,-5.35937 5.865235,-5.35937 z m 27.599614,0 c 3.23818,0 5.86328,2.39933 5.86328,5.35937 0,2.96201 -2.6251,5.36133 -5.86328,5.36133 -3.24064,0 -5.86719,-2.39932 -5.86719,-5.36133 0,-2.96004 2.62655,-5.35937 5.86719,-5.35937 z m -13.80079,3.13672 c 1.04292,0 1.89063,0.70325 1.89063,1.56835 v 4.9336 c 0,0.86584 -0.84771,1.56836 -1.89063,1.56836 -1.04292,0 -1.88867,-0.70252 -1.88867,-1.56836 v -4.9336 c 0,-0.8651 0.84575,-1.56835 1.88867,-1.56835 z"
       inkscape:export-filename="logo-main.svg"
       inkscape:export-xdpi="170.14349"
       inkscape:export-ydpi="170.14349" /><path
       id="text507-7"
       style="font-style:normal;font-variant:normal;font-weight:normal;font-stretch:normal;font-size:23.9297px;line-height:7.0443px;font-family:'Lilita One';-inkscape-font-specification:'Lilita One';fill:#ffffff;fill-opacity:1;fill-rule:evenodd;stroke-width:3.994;stroke-dasharray:none"
       d="m 167.65052,111.69144 c -2.20534,0 -4.01224,0.73997 -5.41991,2.2207 -1.39203,1.48073 -2.08789,3.66092 -2.08789,6.54102 0,2.86382 0.68807,5.04402 2.06445,6.54101 1.39203,1.497 3.18334,2.2461 5.37305,2.2461 2.20534,0 4.00445,-0.71653 5.39648,-2.14844 1.39202,-1.44819 2.08789,-3.64467 2.08789,-6.58984 0,-2.96146 -0.68027,-5.16706 -2.04101,-6.61524 -1.36075,-1.46446 -3.15206,-2.19531 -5.37306,-2.19531 z m 30.78126,0 c -2.20535,0 -4.01226,0.73997 -5.41992,2.2207 -1.39203,1.48073 -2.0879,3.66092 -2.0879,6.54102 0,2.86382 0.68807,5.04402 2.06445,6.54101 1.39203,1.497 3.18335,2.2461 5.37305,2.2461 2.20535,0 4.00446,-0.71653 5.39649,-2.14844 1.39203,-1.44819 2.08789,-3.64467 2.08789,-6.58984 0,-2.96146 -0.68027,-5.16706 -2.04102,-6.61524 -1.36074,-1.46446 -3.15206,-2.19531 -5.37304,-2.19531 z m -50.79297,0.21874 c -0.57871,0 -0.86914,0.28401 -0.86914,0.85353 v 15.91405 c 0,0.24408 0.75044,0.36719 2.25196,0.36719 1.48586,0 2.23046,-0.13028 2.23046,-0.39063 v -5.54101 h 0.72656 l 2.20508,5.34571 c 0.29717,0.4556 0.75134,0.68359 1.36133,0.68359 0.60999,0 1.38382,-0.3511 2.32226,-1.05078 0.6882,-0.50443 1.09558,-0.95128 1.2207,-1.3418 l -2.95702,-5.125 c 0.68818,-0.48815 1.22032,-1.13954 1.5957,-1.95313 0.37537,-0.82986 0.5625,-1.74896 0.5625,-2.75781 0,-3.3357 -2.0564,-5.00391 -6.16992,-5.00391 z m 30.35742,0 c -0.31282,0 -0.57011,0.12117 -0.77344,0.36524 -0.18768,0.22781 -0.28124,0.54633 -0.28124,0.95313 v 14.64453 c 0,0.74849 0.39763,1.12305 1.1953,1.12305 h 4.01172 c 4.9112,0 7.36719,-2.99444 7.36719,-8.98242 0,-2.79875 -0.64908,-4.84866 -1.94726,-6.15039 -1.28255,-1.30174 -3.16742,-1.95314 -5.65431,-1.95314 z m 29.32617,0 c -0.26589,0 -0.45301,0.37456 -0.5625,1.12305 -0.0469,0.35798 -0.0703,0.72341 -0.0703,1.09766 0,0.37425 0.0234,0.74163 0.0703,1.09961 0.10949,0.7485 0.29661,1.12109 0.5625,1.12109 h 2.81641 v 12.25391 c 0,0.32543 0.77383,0.48828 2.32226,0.48828 1.54844,0 2.32227,-0.16285 2.32227,-0.48828 v -12.25391 h 2.7461 c 0.26589,0 0.45301,-0.37259 0.56249,-1.12109 0.0469,-0.35798 0.0703,-0.72536 0.0703,-1.09961 0,-0.37425 -0.0234,-0.73968 -0.0703,-1.09766 -0.10948,-0.74849 -0.2966,-1.12305 -0.56249,-1.12305 z m -56.07031,4.32032 h 0.49219 c 0.65691,0 1.12472,0.14656 1.40624,0.43945 0.29718,0.27662 0.44727,0.70719 0.44727,1.29297 0,1.28547 -0.74265,1.92774 -2.22851,1.92774 h -0.11719 z m 16.35156,0.14649 c 0.75076,0 1.37645,0.34914 1.87695,1.04882 0.51615,0.69968 0.77345,1.70021 0.77345,3.00195 0,1.30174 -0.2495,2.30227 -0.75,3.00196 -0.48487,0.69968 -1.12615,1.05078 -1.92383,1.05078 -0.78204,0 -1.41553,-0.34198 -1.9004,-1.02539 -0.48486,-0.69969 -0.72656,-1.69305 -0.72656,-2.97852 0,-1.30174 0.2495,-2.30943 0.75,-3.02539 0.51615,-0.71595 1.14963,-1.07421 1.90039,-1.07421 z m 30.78126,0 c 0.75075,0 1.37645,0.34914 1.87694,1.04882 0.51615,0.69968 0.77344,1.70021 0.77344,3.00195 0,1.30174 -0.24949,2.30227 -0.75,3.00196 -0.48486,0.69968 -1.12615,1.05078 -1.92383,1.05078 -0.78204,0 -1.41552,-0.34198 -1.90038,-1.02539 -0.48487,-0.69969 -0.72852,-1.69305 -0.72852,-2.97852 0,-1.30174 0.25145,-2.30943 0.75195,-3.02539 0.51614,-0.71595 1.14964,-1.07421 1.9004,-1.07421 z m -16.93946,0.16991 h 0.23438 c 1.001,0 1.72805,0.23711 2.18163,0.70899 0.46922,0.47189 0.70508,1.4887 0.70508,3.05078 0,1.54582 -0.22805,2.65122 -0.68163,3.31836 -0.43795,0.66714 -1.08703,1.00196 -1.94727,1.00196 -0.23462,0 -0.37496,-0.0417 -0.42188,-0.12305 -0.0469,-0.0976 -0.0703,-0.3165 -0.0703,-0.6582 z m -30.09961,15.88086 c -0.75524,0 -1.44424,0.14983 -2.06836,0.44727 -0.61887,0.29136 -1.15186,0.70412 -1.59766,1.23828 -0.44055,0.53417 -0.78474,1.18069 -1.03125,1.93945 -0.24125,0.75877 -0.36132,1.60427 -0.36132,2.53907 0,0.89838 0.11236,1.71299 0.33789,2.4414 0.22552,0.72841 0.55174,1.35297 0.97656,1.875 0.43006,0.52204 0.95339,0.92565 1.57226,1.21095 0.61888,0.27921 1.32268,0.41796 2.10938,0.41796 0.25699,0 0.51511,-0.0163 0.77734,-0.0527 0.26224,-0.0364 0.52231,-0.0912 0.7793,-0.16407 0.25699,-0.0728 0.50679,-0.16243 0.74805,-0.26563 0.24126,-0.10319 0.43774,-0.19626 0.58984,-0.28124 0.1521,-0.0911 0.25163,-0.19522 0.29883,-0.31054 0.0472,-0.11534 0.0703,-0.25039 0.0703,-0.40821 v -4.49024 c 0,-0.10926 -0.0128,-0.20603 -0.0391,-0.29101 -0.0262,-0.085 -0.0622,-0.15066 -0.10936,-0.19922 -0.0472,-0.0486 -0.10051,-0.0851 -0.15821,-0.10938 -0.0577,-0.0243 -0.11418,-0.0371 -0.17187,-0.0371 h -3.23438 c -0.0472,0 -0.0857,0.0128 -0.11718,0.0371 -0.0315,0.0243 -0.0617,0.0626 -0.0879,0.1172 -0.021,0.0486 -0.0364,0.11618 -0.0469,0.20116 -0.0105,0.0789 -0.0156,0.17568 -0.0156,0.29102 0,0.21852 0.0205,0.37923 0.0625,0.48242 0.0472,0.10319 0.11592,0.1543 0.20508,0.1543 h 2.35938 v 3.43359 c -0.27797,0.17604 -0.57913,0.30934 -0.9043,0.40039 -0.31992,0.085 -0.63649,0.12696 -0.95118,0.12696 -0.52971,0 -1.01708,-0.10221 -1.46288,-0.30859 -0.44056,-0.2064 -0.8207,-0.50953 -1.14063,-0.91017 -0.31993,-0.40062 -0.57229,-0.89383 -0.75585,-1.47656 -0.17832,-0.58273 -0.26759,-1.24926 -0.26759,-2.00195 0,-0.67378 0.0816,-1.30029 0.24414,-1.87695 0.16783,-0.57666 0.40541,-1.07336 0.71485,-1.49219 0.30944,-0.41884 0.68701,-0.74764 1.13281,-0.98437 0.4458,-0.23674 0.95054,-0.35352 1.51172,-0.35352 0.47202,0 0.87784,0.0565 1.21875,0.17187 0.34615,0.11534 0.64217,0.2432 0.88867,0.38282 0.2465,0.13961 0.443,0.26747 0.58984,0.38281 0.14686,0.11533 0.25152,0.17188 0.31446,0.17188 0.0367,0 0.072,-0.0109 0.10351,-0.0352 0.0315,-0.0243 0.0572,-0.0645 0.0781,-0.11914 0.021,-0.0607 0.0364,-0.13377 0.0469,-0.21876 0.0105,-0.091 0.0156,-0.19325 0.0156,-0.30859 0,-0.19424 -0.0128,-0.34407 -0.0391,-0.44727 -0.0262,-0.10319 -0.0724,-0.19452 -0.14063,-0.27343 -0.0682,-0.0789 -0.19534,-0.17938 -0.37891,-0.30078 -0.17832,-0.12748 -0.40048,-0.24251 -0.66797,-0.3457 -0.26223,-0.10927 -0.56339,-0.20234 -0.90429,-0.28126 -0.34091,-0.0789 -0.70564,-0.11914 -1.09375,-0.11914 z m 44.91211,1.04688 c -0.12587,0 -0.23054,0.007 -0.31445,0.0195 -0.0839,0.0121 -0.15069,0.0322 -0.20313,0.0625 -0.0472,0.0243 -0.0825,0.0554 -0.10351,0.0918 -0.0157,0.0364 -0.0234,0.0766 -0.0234,0.11914 v 1.94726 H 194.631 c -0.042,0 -0.0824,0.0128 -0.11914,0.0371 -0.0315,0.0182 -0.0572,0.0547 -0.0781,0.10938 -0.021,0.0486 -0.0389,0.1125 -0.0547,0.1914 -0.0105,0.0789 -0.0156,0.17569 -0.0156,0.29102 0,0.21853 0.0231,0.37553 0.0703,0.47265 0.0472,0.0971 0.11079,0.14649 0.18945,0.14649 h 0.99024 v 4.78906 c 0,0.47348 0.0379,0.88622 0.11132,1.23828 0.0787,0.34601 0.20131,0.63458 0.36914,0.86524 0.16784,0.22459 0.38231,0.39444 0.64454,0.50976 0.26223,0.10926 0.57818,0.16407 0.94531,0.16407 0.12063,0 0.2407,-0.009 0.36132,-0.0273 0.12063,-0.0182 0.233,-0.0419 0.3379,-0.0723 0.11014,-0.0243 0.2071,-0.0591 0.29101,-0.10156 0.0839,-0.0425 0.1475,-0.0882 0.18946,-0.13672 0.042,-0.0486 0.0728,-0.12337 0.0937,-0.22657 0.021,-0.10319 0.0312,-0.24388 0.0312,-0.41992 0,-0.10926 -0.005,-0.2006 -0.0156,-0.27343 -0.0105,-0.0729 -0.0233,-0.12939 -0.0391,-0.17188 -0.0105,-0.0425 -0.0285,-0.0699 -0.0547,-0.082 -0.021,-0.0182 -0.0441,-0.0273 -0.0703,-0.0273 -0.042,0 -0.0901,0.0146 -0.14258,0.0449 -0.0524,0.0243 -0.11602,0.0517 -0.18945,0.082 -0.0734,0.0303 -0.15755,0.0614 -0.25195,0.0918 -0.0944,0.0243 -0.20164,0.0371 -0.32227,0.0371 -0.37237,0 -0.63049,-0.14439 -0.77734,-0.42968 -0.14162,-0.29137 -0.21289,-0.71868 -0.21289,-1.28321 v -4.57031 h 1.8164 c 0.0787,0 0.14225,-0.0494 0.18946,-0.14649 0.0472,-0.0971 0.0703,-0.25412 0.0703,-0.47265 0,-0.11533 -0.005,-0.2121 -0.0156,-0.29102 -0.0105,-0.0789 -0.0285,-0.14284 -0.0547,-0.1914 -0.021,-0.0546 -0.0467,-0.0912 -0.0781,-0.10938 -0.0315,-0.0243 -0.0694,-0.0371 -0.11133,-0.0371 h -1.8164 v -1.94726 c 0,-0.0425 -0.0103,-0.0827 -0.0313,-0.11914 -0.021,-0.0364 -0.0563,-0.0675 -0.10351,-0.0918 -0.0472,-0.0304 -0.1114,-0.0504 -0.19531,-0.0625 -0.0839,-0.0121 -0.1931,-0.0195 -0.32422,-0.0195 z M 159.4806,135.543 c -0.27272,0 -0.54306,0.0291 -0.81054,0.0898 -0.26748,0.0546 -0.51471,0.12769 -0.74024,0.21874 -0.22552,0.085 -0.42458,0.18176 -0.59765,0.29102 -0.17307,0.10319 -0.29571,0.19453 -0.36914,0.27343 -0.0682,0.0789 -0.11379,0.16481 -0.13477,0.25586 -0.0157,0.085 -0.0234,0.20176 -0.0234,0.35353 0,0.091 0.005,0.17694 0.0156,0.25586 0.0105,0.0728 0.0278,0.13307 0.0488,0.18163 0.0262,0.0486 0.0545,0.0851 0.0859,0.10937 0.0315,0.0243 0.0674,0.0371 0.10937,0.0371 0.0629,0 0.15733,-0.042 0.28321,-0.12696 0.13111,-0.091 0.29165,-0.18977 0.48046,-0.29296 0.19406,-0.10927 0.41622,-0.20604 0.66797,-0.29102 0.25699,-0.091 0.54531,-0.13672 0.86523,-0.13672 0.29895,0 0.55132,0.0439 0.75587,0.12891 0.20454,0.0789 0.37021,0.19938 0.49609,0.36328 0.13112,0.15782 0.22551,0.35875 0.2832,0.60156 0.0577,0.2428 0.0859,0.52224 0.0859,0.83789 v 0.63672 h -0.97461 c -0.55069,0 -1.04773,0.0565 -1.48829,0.17188 -0.44055,0.10926 -0.81299,0.27735 -1.11718,0.50195 -0.30419,0.22459 -0.53664,0.50577 -0.69922,0.8457 -0.16258,0.33992 -0.24414,0.7418 -0.24414,1.20312 0,0.39456 0.0584,0.74707 0.17382,1.05664 0.12064,0.30959 0.28437,0.5688 0.49415,0.78125 0.21503,0.21246 0.47254,0.37512 0.77149,0.48439 0.30419,0.11532 0.64324,0.17186 1.01562,0.17186 0.42482,0 0.82551,-0.1059 1.20313,-0.31835 0.38286,-0.21246 0.72961,-0.51016 1.03905,-0.89258 v 0.82031 c 0,0.0728 0.018,0.12764 0.0547,0.16406 0.0367,0.0364 0.0952,0.0638 0.17383,0.082 0.0839,0.0182 0.19372,0.0274 0.33008,0.0274 0.14161,0 0.24884,-0.009 0.32226,-0.0274 0.0734,-0.0182 0.12993,-0.0456 0.17188,-0.082 0.042,-0.0364 0.0644,-0.0912 0.0644,-0.16406 v -5.52735 c 0,-0.50988 -0.0507,-0.95547 -0.15038,-1.33788 -0.0996,-0.38242 -0.2602,-0.70209 -0.48048,-0.95703 -0.22027,-0.26102 -0.50859,-0.45826 -0.86523,-0.5918 -0.35664,-0.13355 -0.78814,-0.19922 -1.29688,-0.19922 z m 8.64649,0 c -0.38287,0 -0.76496,0.12048 -1.14257,0.36328 -0.37239,0.23674 -0.75766,0.61294 -1.15626,1.12891 v -1.08399 c 0,-0.0486 -0.0103,-0.0868 -0.0312,-0.11718 -0.0157,-0.0364 -0.044,-0.0675 -0.0859,-0.0918 -0.042,-0.0303 -0.10297,-0.0486 -0.18164,-0.0547 -0.0734,-0.0121 -0.16782,-0.0176 -0.28321,-0.0176 -0.12063,0 -0.21759,0.005 -0.29102,0.0176 -0.0734,0.006 -0.13248,0.0243 -0.17969,0.0547 -0.0472,0.0243 -0.08,0.0554 -0.0957,0.0918 -0.0157,0.0303 -0.0234,0.0686 -0.0234,0.11718 v 8.19531 c 0,0.0486 0.008,0.0905 0.0234,0.12696 0.021,0.0303 0.0563,0.0577 0.10352,0.082 0.0524,0.0243 0.11921,0.0426 0.20312,0.0547 0.0839,0.0121 0.18858,0.0195 0.31446,0.0195 0.13111,0 0.2403,-0.007 0.32422,-0.0195 0.0839,-0.0121 0.14811,-0.0304 0.1953,-0.0547 0.0472,-0.0243 0.0825,-0.0517 0.10353,-0.082 0.021,-0.0364 0.0312,-0.0784 0.0312,-0.12696 v -5.72656 c 0.35665,-0.51596 0.68604,-0.90869 0.99024,-1.17578 0.30419,-0.26708 0.6073,-0.40039 0.90625,-0.40039 0.24126,0 0.44802,0.0548 0.62109,0.16406 0.17832,0.10926 0.32407,0.26823 0.43946,0.47461 0.11538,0.20639 0.20207,0.45104 0.25976,0.73633 0.0577,0.2853 0.0879,0.60127 0.0879,0.94727 v 4.98046 c 0,0.0486 0.008,0.0905 0.0234,0.12696 0.021,0.0303 0.0544,0.0577 0.10157,0.082 0.0524,0.0243 0.12116,0.0426 0.20507,0.0547 0.0892,0.0121 0.19383,0.0195 0.31445,0.0195 0.12588,0 0.23055,-0.007 0.31446,-0.0195 0.0839,-0.0121 0.15006,-0.0304 0.19726,-0.0547 0.0525,-0.0243 0.0884,-0.0517 0.10938,-0.082 0.021,-0.0364 0.0312,-0.0784 0.0312,-0.12696 v -5.72656 c 0.36188,-0.51596 0.69324,-0.90869 0.99219,-1.17578 0.30419,-0.26708 0.60535,-0.40039 0.9043,-0.40039 0.24125,0 0.45058,0.0548 0.6289,0.16406 0.17831,0.10926 0.32602,0.26823 0.4414,0.47461 0.11539,0.20639 0.19951,0.45104 0.25196,0.73633 0.0524,0.2853 0.0781,0.60127 0.0781,0.94727 v 4.98046 c 0,0.0486 0.0103,0.0905 0.0312,0.12696 0.021,0.0303 0.0544,0.0577 0.10157,0.082 0.0524,0.0243 0.12116,0.0426 0.20507,0.0547 0.0839,0.0121 0.19115,0.0195 0.32227,0.0195 0.12587,0 0.23054,-0.007 0.31445,-0.0195 0.0839,-0.0121 0.15007,-0.0304 0.19726,-0.0547 0.0472,-0.0243 0.0806,-0.0517 0.10156,-0.082 0.021,-0.0364 0.0313,-0.0784 0.0313,-0.12696 v -5.18164 c 0,-0.46132 -0.0411,-0.89778 -0.125,-1.31054 -0.0787,-0.41884 -0.21415,-0.78223 -0.4082,-1.0918 -0.18881,-0.30958 -0.43861,-0.55618 -0.74805,-0.73828 -0.30944,-0.18818 -0.69215,-0.28125 -1.14843,-0.28125 -0.18881,0 -0.3776,0.0291 -0.56641,0.0898 -0.18357,0.0546 -0.37492,0.14596 -0.57422,0.27343 -0.19406,0.12748 -0.39825,0.29362 -0.61329,0.5 -0.20979,0.20638 -0.4339,0.45843 -0.66992,0.75586 -0.0839,-0.2428 -0.18858,-0.46006 -0.31445,-0.6543 -0.12587,-0.20031 -0.27676,-0.37015 -0.45508,-0.50976 -0.17832,-0.14568 -0.38703,-0.25898 -0.62304,-0.3379 -0.23078,-0.0789 -0.49146,-0.11718 -0.78516,-0.11718 z m 12.32617,0 c -0.51923,0 -0.98862,0.1059 -1.4082,0.31836 -0.41957,0.20638 -0.77918,0.50583 -1.07812,0.90039 -0.29371,0.38849 -0.51845,0.86516 -0.67579,1.42969 -0.15734,0.55845 -0.23633,1.1904 -0.23633,1.89453 0,0.74055 0.0764,1.38882 0.22852,1.94726 0.15209,0.55846 0.37683,1.02426 0.67578,1.39454 0.29895,0.37027 0.66625,0.64971 1.10156,0.83788 0.44056,0.18818 0.95299,0.28125 1.53516,0.28125 0.33566,0 0.64966,-0.0291 0.94336,-0.0898 0.29894,-0.0546 0.56159,-0.11856 0.7871,-0.19141 0.22553,-0.0728 0.40918,-0.1459 0.55079,-0.21874 0.14161,-0.0789 0.22573,-0.13372 0.25195,-0.16406 0.0315,-0.0364 0.0546,-0.073 0.0703,-0.10938 0.021,-0.0364 0.0338,-0.0767 0.0391,-0.11915 0.0105,-0.0486 0.0182,-0.0997 0.0234,-0.15429 0.005,-0.0607 0.008,-0.13007 0.008,-0.20898 0,-0.10927 -0.005,-0.2006 -0.0156,-0.27344 -0.005,-0.0789 -0.0155,-0.13915 -0.0313,-0.18164 -0.0157,-0.0425 -0.0388,-0.0736 -0.0703,-0.0918 -0.0262,-0.0243 -0.057,-0.0371 -0.0937,-0.0371 -0.0629,0 -0.15733,0.0348 -0.28321,0.10155 -0.12062,0.0607 -0.27859,0.13008 -0.47265,0.20899 -0.18881,0.0789 -0.4155,0.15198 -0.67773,0.21875 -0.26224,0.0607 -0.56082,0.0898 -0.89649,0.0898 -0.42482,0 -0.78442,-0.0694 -1.07813,-0.20898 -0.2937,-0.13962 -0.53128,-0.33859 -0.71484,-0.59961 -0.18356,-0.26101 -0.3139,-0.57525 -0.39258,-0.93946 -0.0787,-0.3642 -0.11914,-0.77325 -0.11914,-1.22851 h 4.64258 c 0.13112,0 0.24606,-0.0494 0.34571,-0.14648 0.10489,-0.10319 0.15625,-0.27304 0.15625,-0.50977 v -0.27148 c 0,-0.53418 -0.0591,-1.03652 -0.1797,-1.50391 -0.11537,-0.47347 -0.29902,-0.88252 -0.55078,-1.22851 -0.25174,-0.35208 -0.57538,-0.63152 -0.96874,-0.8379 -0.38811,-0.20638 -0.86008,-0.30859 -1.41602,-0.30859 z m 10.91992,0 c -0.43007,0 -0.80764,0.0657 -1.13281,0.19922 -0.31992,0.13354 -0.5877,0.31251 -0.80273,0.53711 -0.21504,0.21853 -0.37815,0.476 -0.48829,0.77343 -0.10488,0.29137 -0.15625,0.59821 -0.15625,0.91992 0,0.36422 0.0488,0.67649 0.14845,0.93751 0.10489,0.26101 0.24232,0.48565 0.41015,0.67382 0.16783,0.18818 0.35661,0.35083 0.5664,0.48438 0.21504,0.12747 0.43207,0.24251 0.65234,0.34571 0.22553,0.10319 0.44452,0.20366 0.65431,0.30078 0.20979,0.091 0.39857,0.19695 0.5664,0.31835 0.16783,0.12141 0.30074,0.26014 0.40039,0.41798 0.10489,0.15782 0.15821,0.35136 0.15821,0.58202 0,0.2246 -0.0379,0.4201 -0.11133,0.58399 -0.0682,0.1639 -0.16771,0.30089 -0.29883,0.41016 -0.13112,0.10319 -0.28653,0.1817 -0.46485,0.23633 -0.17831,0.0546 -0.37737,0.082 -0.59765,0.082 -0.2937,0 -0.55182,-0.0402 -0.77734,-0.11914 -0.22553,-0.085 -0.42397,-0.17631 -0.59181,-0.27344 -0.16258,-0.0971 -0.30062,-0.18475 -0.41601,-0.26367 -0.11014,-0.085 -0.19426,-0.12694 -0.25195,-0.12694 -0.0367,0 -0.0701,0.0128 -0.10157,0.0371 -0.0262,0.0182 -0.0468,0.0511 -0.0625,0.0996 -0.0157,0.0486 -0.0305,0.1125 -0.041,0.19141 -0.0105,0.0789 -0.0156,0.17568 -0.0156,0.29101 0,0.18817 0.0128,0.33605 0.0391,0.44532 0.0262,0.10926 0.0693,0.19515 0.12696,0.25586 0.0577,0.0607 0.14951,0.13007 0.27539,0.20898 0.12586,0.0728 0.27675,0.14591 0.45507,0.21874 0.18356,0.0668 0.38972,0.12158 0.61523,0.16407 0.23077,0.0486 0.47092,0.0723 0.72266,0.0723 0.40909,0 0.7841,-0.0565 1.125,-0.17186 0.34091,-0.11534 0.63436,-0.28518 0.88086,-0.50978 0.2465,-0.22459 0.43529,-0.50229 0.56641,-0.83007 0.13636,-0.32779 0.20508,-0.7003 0.20508,-1.11914 0,-0.35207 -0.0514,-0.65521 -0.15625,-0.91016 -0.0996,-0.25495 -0.23452,-0.47415 -0.40234,-0.65625 -0.16784,-0.1821 -0.36176,-0.33737 -0.58204,-0.46485 -0.21503,-0.12746 -0.43463,-0.2425 -0.66016,-0.3457 -0.22028,-0.10319 -0.43926,-0.20365 -0.65429,-0.30077 -0.21503,-0.0971 -0.40639,-0.20673 -0.57422,-0.32813 -0.16783,-0.12141 -0.30331,-0.26015 -0.40821,-0.41797 -0.10489,-0.16389 -0.1582,-0.36483 -0.1582,-0.60156 0,-0.16997 0.0276,-0.32697 0.0801,-0.47266 0.0577,-0.14568 0.13729,-0.26985 0.24219,-0.37305 0.11014,-0.10926 0.25014,-0.19146 0.41797,-0.24609 0.16783,-0.0607 0.36175,-0.0918 0.58202,-0.0918 0.24651,0 0.46355,0.0348 0.65236,0.10156 0.19405,0.0668 0.36229,0.13789 0.5039,0.21681 0.1416,0.0728 0.25654,0.14416 0.3457,0.21093 0.0892,0.0668 0.15788,0.0996 0.20508,0.0996 0.0315,0 0.0597,-0.009 0.0859,-0.0274 0.0262,-0.0243 0.0487,-0.0608 0.0644,-0.10937 0.021,-0.0486 0.0338,-0.1088 0.0391,-0.18164 0.0105,-0.0789 0.0156,-0.17025 0.0156,-0.27344 0,-0.0971 -0.005,-0.17932 -0.0156,-0.24609 -0.005,-0.0668 -0.0129,-0.12157 -0.0234,-0.16406 -0.005,-0.0486 -0.0181,-0.0905 -0.0391,-0.12696 -0.0157,-0.0364 -0.0536,-0.0784 -0.11134,-0.12695 -0.0524,-0.0486 -0.13399,-0.10336 -0.24413,-0.16407 -0.1049,-0.0668 -0.23268,-0.12895 -0.38477,-0.18359 -0.1521,-0.0546 -0.32291,-0.0983 -0.51172,-0.13476 -0.18881,-0.0364 -0.3776,-0.0547 -0.56641,-0.0547 z m 12.28907,0 c -0.60315,0 -1.13099,0.11134 -1.58204,0.33594 -0.45104,0.22459 -0.82862,0.54056 -1.13281,0.94726 -0.29895,0.4067 -0.52368,0.89251 -0.67577,1.45703 -0.14686,0.55846 -0.22072,1.17018 -0.22072,1.83789 0,0.692 0.0713,1.31307 0.2129,1.85938 0.1416,0.54631 0.35607,1.01016 0.64453,1.39258 0.28846,0.38241 0.64806,0.67273 1.07813,0.87304 0.4353,0.20031 0.94322,0.30078 1.52538,0.30078 0.5979,0 1.12318,-0.11134 1.57422,-0.33593 0.45629,-0.23066 0.83387,-0.55033 1.13282,-0.95704 0.30419,-0.40669 0.53149,-0.88881 0.68359,-1.44725 0.1521,-0.56453 0.22851,-1.17995 0.22851,-1.84766 0,-0.68592 -0.0738,-1.3033 -0.2207,-1.84961 -0.1416,-0.54632 -0.35607,-1.01017 -0.64453,-1.39259 -0.28846,-0.3824 -0.65062,-0.67468 -1.08594,-0.87499 -0.43006,-0.20031 -0.93541,-0.29883 -1.51757,-0.29883 z m 8.48827,0 c -0.15209,0 -0.30493,0.0237 -0.45703,0.0723 -0.14685,0.0425 -0.29516,0.1247 -0.44726,0.2461 -0.1521,0.11533 -0.3152,0.27604 -0.48828,0.48242 -0.16783,0.20639 -0.34892,0.473 -0.54297,0.80078 v -1.19336 c 0,-0.0486 -0.0103,-0.0868 -0.0312,-0.11718 -0.0157,-0.0364 -0.044,-0.0675 -0.0859,-0.0918 -0.042,-0.0303 -0.10296,-0.0486 -0.18164,-0.0547 -0.0734,-0.0121 -0.16782,-0.0176 -0.2832,-0.0176 -0.12063,0 -0.21759,0.005 -0.29101,0.0176 -0.0734,0.006 -0.13445,0.0243 -0.18165,0.0547 -0.0472,0.0243 -0.078,0.0554 -0.0937,0.0918 -0.0157,0.0303 -0.0234,0.0686 -0.0234,0.11718 v 8.19531 c 0,0.0486 0.008,0.0905 0.0234,0.12696 0.021,0.0303 0.0543,0.0577 0.10156,0.082 0.0524,0.0243 0.12116,0.0426 0.20507,0.0547 0.0839,0.0121 0.18859,0.0195 0.31446,0.0195 0.13111,0 0.23835,-0.007 0.32227,-0.0195 0.0839,-0.0121 0.15006,-0.0304 0.19726,-0.0547 0.0472,-0.0243 0.0806,-0.0517 0.10156,-0.082 0.021,-0.0364 0.0312,-0.0784 0.0312,-0.12696 v -5.39062 c 0.18357,-0.33386 0.35181,-0.61503 0.50391,-0.8457 0.15209,-0.23067 0.29722,-0.41704 0.43359,-0.55664 0.14161,-0.13961 0.27452,-0.24008 0.40039,-0.30079 0.12587,-0.0607 0.2556,-0.0898 0.38672,-0.0898 0.11014,0 0.21223,0.0109 0.30664,0.0352 0.0944,0.0243 0.17853,0.0517 0.25195,0.082 0.0787,0.0243 0.14544,0.0517 0.20313,0.082 0.0629,0.0243 0.11625,0.0371 0.1582,0.0371 0.042,0 0.0728,-0.0128 0.0938,-0.0371 0.0262,-0.0303 0.0468,-0.0686 0.0625,-0.11719 0.0157,-0.0546 0.028,-0.12769 0.0332,-0.21875 0.005,-0.091 0.008,-0.20435 0.008,-0.33789 0,-0.13962 -0.003,-0.24726 -0.008,-0.32617 0,-0.085 -0.007,-0.14891 -0.0176,-0.19141 -0.005,-0.0425 -0.0129,-0.0773 -0.0234,-0.10155 -0.0105,-0.0304 -0.031,-0.0595 -0.0625,-0.0899 -0.0315,-0.0303 -0.0854,-0.0614 -0.16406,-0.0918 -0.0734,-0.0303 -0.15756,-0.0577 -0.25196,-0.082 -0.0944,-0.0243 -0.18623,-0.0388 -0.27539,-0.0449 -0.0839,-0.0121 -0.16033,-0.0176 -0.22852,-0.0176 z m 5.22267,0 c -0.51923,0 -0.98863,0.1059 -1.40821,0.31836 -0.41958,0.20638 -0.77723,0.50583 -1.07617,0.90039 -0.29371,0.38849 -0.52039,0.86516 -0.67774,1.42969 -0.15734,0.55845 -0.23632,1.1904 -0.23632,1.89453 0,0.74055 0.0764,1.38882 0.22851,1.94726 0.1521,0.55846 0.37879,1.02426 0.67773,1.39454 0.29895,0.37027 0.66626,0.64971 1.10157,0.83788 0.44055,0.18818 0.95104,0.28125 1.5332,0.28125 0.33567,0 0.64966,-0.0291 0.94336,-0.0898 0.29895,-0.0546 0.56158,-0.11856 0.78711,-0.19141 0.22553,-0.0728 0.40918,-0.1459 0.55078,-0.21874 0.14161,-0.0789 0.22573,-0.13372 0.25196,-0.16406 0.0315,-0.0364 0.0546,-0.073 0.0703,-0.10938 0.021,-0.0364 0.0338,-0.0767 0.0391,-0.11915 0.0105,-0.0486 0.0182,-0.0997 0.0234,-0.15429 0.005,-0.0607 0.008,-0.13007 0.008,-0.20898 0,-0.10927 -0.005,-0.2006 -0.0156,-0.27344 -0.005,-0.0789 -0.0155,-0.13915 -0.0312,-0.18164 -0.0157,-0.0425 -0.0388,-0.0736 -0.0703,-0.0918 -0.0262,-0.0243 -0.057,-0.0371 -0.0937,-0.0371 -0.0629,0 -0.15733,0.0348 -0.2832,0.10155 -0.12063,0.0607 -0.27861,0.13008 -0.47266,0.20899 -0.18881,0.0789 -0.41354,0.15198 -0.67578,0.21875 -0.26224,0.0607 -0.56278,0.0898 -0.89843,0.0898 -0.42483,0 -0.78247,-0.0694 -1.07618,-0.20898 -0.2937,-0.13962 -0.53323,-0.33859 -0.71679,-0.59961 -0.18357,-0.26101 -0.31391,-0.57525 -0.39258,-0.93946 -0.0787,-0.3642 -0.11914,-0.77325 -0.11914,-1.22851 h 4.64258 c 0.13111,0 0.24605,-0.0494 0.3457,-0.14648 0.1049,-0.10319 0.1582,-0.27304 0.1582,-0.50977 v -0.27148 c 0,-0.53418 -0.061,-1.03652 -0.18164,-1.50391 -0.11539,-0.47347 -0.29904,-0.88252 -0.55078,-1.22851 -0.25175,-0.35208 -0.5754,-0.63152 -0.96875,-0.8379 -0.38811,-0.20638 -0.86007,-0.30859 -1.41601,-0.30859 z m -36.97462,1.17382 c 0.62413,0 1.09352,0.22465 1.40821,0.67384 0.31992,0.44918 0.47276,1.06831 0.45703,1.85742 h -3.83985 c 0.0105,-0.33386 0.0612,-0.65353 0.1504,-0.95703 0.0892,-0.30958 0.21437,-0.57793 0.37695,-0.8086 0.16258,-0.23066 0.36421,-0.41702 0.60547,-0.55663 0.24126,-0.13962 0.52186,-0.209 0.84179,-0.209 z m 36.91993,0 c 0.62412,0 1.09352,0.22465 1.4082,0.67384 0.31993,0.44918 0.47276,1.06831 0.45703,1.85742 h -3.83984 c 0.0105,-0.33386 0.0612,-0.65353 0.15038,-0.95703 0.0892,-0.30958 0.21437,-0.57793 0.37696,-0.8086 0.16259,-0.23066 0.36421,-0.41702 0.60547,-0.55663 0.24125,-0.13962 0.52187,-0.209 0.8418,-0.209 z m -13.71094,0.082 c 0.41433,0 0.75914,0.0876 1.03711,0.26367 0.27797,0.16996 0.49952,0.40374 0.6621,0.70117 0.1626,0.29744 0.27753,0.64451 0.34571,1.03907 0.0734,0.39455 0.10938,0.81273 0.10938,1.25586 0,0.47347 -0.0411,0.90622 -0.12501,1.30078 -0.0839,0.39455 -0.21621,0.73618 -0.39453,1.02148 -0.17832,0.2853 -0.40562,0.50624 -0.68359,0.66406 -0.27797,0.15782 -0.60676,0.23633 -0.98438,0.23633 -0.41433,0 -0.75913,-0.0839 -1.0371,-0.2539 -0.27797,-0.17604 -0.5021,-0.40982 -0.66992,-0.70118 -0.1626,-0.29744 -0.2801,-0.6445 -0.35352,-1.03906 -0.0682,-0.39455 -0.10156,-0.81643 -0.10156,-1.26563 0,-0.46739 0.0411,-0.89841 0.125,-1.29297 0.0892,-0.39455 0.22401,-0.73423 0.40234,-1.01953 0.17832,-0.29136 0.40305,-0.516 0.67578,-0.67382 0.27798,-0.15782 0.60933,-0.23633 0.99219,-0.23633 z m -43.73438,3.61524 h 1.10938 v 1.73827 c -0.31993,0.41278 -0.62622,0.71962 -0.91992,0.91993 -0.28846,0.20031 -0.60246,0.30078 -0.94336,0.30078 -0.41958,0 -0.74837,-0.12417 -0.98438,-0.37305 -0.23076,-0.25494 -0.3457,-0.59462 -0.3457,-1.01953 0,-0.24887 0.0385,-0.46808 0.11718,-0.65625 0.0839,-0.19424 0.21364,-0.35864 0.38673,-0.49219 0.17307,-0.13961 0.39011,-0.24182 0.65234,-0.30859 0.26223,-0.0729 0.57109,-0.10937 0.92773,-0.10937 z"
       inkscape:export-filename="logo-main.svg"
       inkscape:export-xdpi="170.14349"
       inkscape:export-ydpi="170.14349" /></g></svg>
